<svg width="22" height="36" viewBox="0 0 22 36" fill="none" xmlns="http://www.w3.org/2000/svg">
<g clip-path="url(#clip0_160_141)">
<path d="M15.3005 4.31506H4.10525C2.46972 4.31506 1.13852 5.6451 1.13852 7.27726V18.2307H0.848701C0.188592 18.2307 -0.346642 18.7647 -0.346642 19.4243V26.6632C-0.346642 27.3228 0.188592 27.8569 0.848701 27.8569H1.13852V29.1842C1.13852 30.8181 2.46978 32.1464 4.10525 32.1464H19.3808C21.0153 32.1464 22.3466 30.8181 22.3466 29.1842V11.3257L15.3005 4.31506ZM5.36297 24.8191C5.70609 24.8191 6.0865 24.7446 6.3107 24.6555L6.48189 25.5415C6.27324 25.6461 5.8031 25.7581 5.19173 25.7581C3.45335 25.7581 2.55812 24.6782 2.55812 23.248C2.55812 21.535 3.78173 20.5816 5.30343 20.5816C5.89289 20.5816 6.3403 20.7007 6.54161 20.8045L6.3107 21.706C6.07922 21.6087 5.75853 21.5196 5.35575 21.5196C4.45276 21.5196 3.75167 22.0635 3.75167 23.1808C3.75167 24.186 4.34847 24.8191 5.36297 24.8191ZM19.3807 30.3323H4.10525C3.47197 30.3323 2.95622 29.8174 2.95622 29.1842V27.8569H17.1961C17.8564 27.8569 18.3917 27.3228 18.3917 26.6632V19.4243C18.3917 18.7647 17.8564 18.2307 17.1961 18.2307H2.95622V7.27726C2.95622 6.64581 3.47197 6.13091 4.10525 6.13091L14.6209 6.12V10.001C14.6209 11.1345 15.5421 12.0552 16.6783 12.0552L20.4859 12.0444L20.5287 29.1842C20.5287 29.8174 20.014 30.3323 19.3807 30.3323ZM8.48378 23.5756C7.64815 23.2854 7.10338 22.8232 7.10338 22.0935C7.10338 21.2364 7.81945 20.5815 9.00577 20.5815C9.57251 20.5815 9.99079 20.7006 10.2887 20.8344L10.0354 21.7506C9.83406 21.6541 9.47591 21.5121 8.98346 21.5121C8.491 21.5121 8.2523 21.736 8.2523 21.9963C8.2523 22.3165 8.53564 22.4584 9.18482 22.704C10.0728 23.0316 10.4905 23.4937 10.4905 24.2015C10.4905 25.043 9.84129 25.7581 8.46135 25.7581C7.88686 25.7581 7.31971 25.6089 7.03637 25.4524L7.26774 24.5144C7.57351 24.6709 8.04365 24.8265 8.52835 24.8265C9.05046 24.8265 9.32652 24.6108 9.32652 24.2833C9.32658 23.9704 9.08787 23.7912 8.48378 23.5756ZM12.5143 23.5756C11.6788 23.2854 11.1339 22.8232 11.1339 22.0935C11.1339 21.2364 11.8501 20.5815 13.0363 20.5815C13.6036 20.5815 14.0208 20.7006 14.3197 20.8344L14.066 21.7506C13.8646 21.6541 13.5065 21.5121 13.014 21.5121C12.5216 21.5121 12.2828 21.736 12.2828 21.9963C12.2828 22.3165 12.5662 22.4584 13.2154 22.704C14.1033 23.0316 14.5212 23.4937 14.5212 24.2015C14.5212 25.043 13.872 25.7581 12.492 25.7581C11.9175 25.7581 11.3503 25.6089 11.0669 25.4524L11.2984 24.5144C11.6041 24.6709 12.0742 24.8265 12.5589 24.8265C13.081 24.8265 13.3571 24.6108 13.3571 24.2833C13.3571 23.9704 13.1183 23.7912 12.5143 23.5756Z" fill="#2A7AE4"/>
</g>
<defs>
<clipPath id="clip0_160_141">
<rect width="22" height="35.5385" fill="white" transform="translate(0 0.461548)"/>
</clipPath>
</defs>
</svg>
